HIERARCHY
ROOT root
{
	OFFSET	0	13.1	24.9
	CHANNELS 6  Xposition Yposition Zposition Xrotation Yrotation Zrotation
	JOINT spine_1
	{
		OFFSET	0	9.99999	0
		CHANNELS 3  Xrotation Yrotation Zrotation
		JOINT spine_2
		{
			OFFSET	0	112	-10
			CHANNELS 3  Xrotation Yrotation Zrotation
			JOINT spine_3
			{
				OFFSET	0	206.5	19.3
				CHANNELS 3  Xrotation Yrotation Zrotation
				JOINT spine_4
				{
					OFFSET	0	110.4	14.6
					CHANNELS 3  Xrotation Yrotation Zrotation
					JOINT neck_1
					{
						OFFSET	0	71.8	-50.3
						CHANNELS 3  Xrotation Yrotation Zrotation
						JOINT neck_2
						{
							OFFSET	0	86.2	-25.8
							CHANNELS 3  Xrotation Yrotation Zrotation
							JOINT head_ee
							{
								OFFSET	0	179.8	-8.7
								CHANNELS 3  Xrotation Yrotation Zrotation
								End Site
								{
									OFFSET	1	0	0
								}
							}
						}
					}
					JOINT left_clavicle
					{
						OFFSET	-43.2	22.4	-70.8
						CHANNELS 3  Xrotation Yrotation Zrotation
						JOINT left_shoulder
						{
							OFFSET	-93.9	-5.79999	48.7
							CHANNELS 3  Xrotation Yrotation Zrotation
							JOINT left_elbow
							{
								OFFSET	-291.4	-30.8	15.2
								CHANNELS 3  Xrotation Yrotation Zrotation
								JOINT left_lowarm_twist
								{
									OFFSET	-110.7	-3.89999	13.6
									CHANNELS 3  Xrotation Yrotation Zrotation
									JOINT left_hand
									{
										OFFSET	-110.7	-3.89999	13.6
										CHANNELS 3  Xrotation Yrotation Zrotation
										JOINT left_ee
										{
											OFFSET	-80.8	-5.10001	12.1
											CHANNELS 3  Xrotation Yrotation Zrotation
											End Site
											{
												OFFSET	1	0	0
											}
										}
									}
								}
							}
						}
					}
					JOINT right_clavicle
					{
						OFFSET	43.2	22.4	-70.8
						CHANNELS 3  Xrotation Yrotation Zrotation
						JOINT right_shoulder
						{
							OFFSET	93.9	-5.79999	48.7
							CHANNELS 3  Xrotation Yrotation Zrotation
							JOINT right_elbow
							{
								OFFSET	291.4	-30.8	15.2
								CHANNELS 3  Xrotation Yrotation Zrotation
								JOINT right_lowarm_twist
								{
									OFFSET	110.7	-3.89999	13.6
									CHANNELS 3  Xrotation Yrotation Zrotation
									JOINT right_hand
									{
										OFFSET	110.7	-3.89999	13.6
										CHANNELS 3  Xrotation Yrotation Zrotation
										JOINT right_ee
										{
											OFFSET	80.8	-5.10001	12.1
											CHANNELS 3  Xrotation Yrotation Zrotation
											End Site
											{
												OFFSET	1	0	0
											}
										}
									}
								}
							}
						}
					}
				}
			}
		}
	}
	JOINT left_hip
	{
		OFFSET	-82.8	-127.5	0.300001
		CHANNELS 3  Xrotation Yrotation Zrotation
		JOINT left_knee
		{
			OFFSET	-28.2	-396.7	2.2
			CHANNELS 3  Xrotation Yrotation Zrotation
			JOINT left_ankle
			{
				OFFSET	-11.7	-411.3	35.4
				CHANNELS 3  Xrotation Yrotation Zrotation
				JOINT left_toes
				{
					OFFSET	0	-60	-88.6
					CHANNELS 3  Xrotation Yrotation Zrotation
					JOINT left_foot_ee
					{
						OFFSET	-22.5	-16.5	-42.2
						CHANNELS 3  Xrotation Yrotation Zrotation
						End Site
						{
							OFFSET	1	0	0
						}
					}
				}
			}
		}
	}
	JOINT right_hip
	{
		OFFSET	82.8	-127.5	0.300001
		CHANNELS 3  Xrotation Yrotation Zrotation
		JOINT right_knee
		{
			OFFSET	28.2	-396.7	2.2
			CHANNELS 3  Xrotation Yrotation Zrotation
			JOINT right_ankle
			{
				OFFSET	11.7	-411.3	35.4
				CHANNELS 3  Xrotation Yrotation Zrotation
				JOINT right_toes
				{
					OFFSET	0	-60	-88.6
					CHANNELS 3  Xrotation Yrotation Zrotation
					JOINT right_foot_ee
					{
						OFFSET	22.5	-16.5	-42.2
						CHANNELS 3  Xrotation Yrotation Zrotation
						End Site
						{
							OFFSET	1	0	0
						}
					}
				}
			}
		}
	}
}
MOTION
Frames: 12
Frame Time: 0.02
2800.94 716.97 -1473.77 12.0733717077 65.1623657822 -5.83517662059 -2.02381 -0.61584 -3.87383 -2.01554 -0.368282 -3.9051 -1.98146 0.595732 -3.87697 -2.00243 -0.0235498 -3.92233 0.202491 9.02343 6.35468 0.352595 10.8435 7.7641 -0.0 0.0 -0.0 4.93347 23.7862 9.50812 16.9202 -34.1455 71.4697 4.43422 -65.5015 2.8531 -33.2602 -2.26455 3.5358 -2.60638 7.12693 -14.1319 -0.0 0.0 -0.0 -3.25372 6.68863 7.45885 -13.9697 5.27633 -73.6291 0.512982 14.2582 -0.0641603 16.3383 -0.283564 2.06075 -0.114833 -27.955 -10.3423 0.0 0.0 0.0 -25.0682 1.86847 5.24906 4.86857 -0.230882 -0.711051 41.5456 17.0749 -5.10522 -30.5776 0.0 0.0 -0.0 0.0 -0.0 28.1773 18.2632 -12.088 -6.03189 -0.200938 -0.903483 37.3696 26.6454 5.4391 -26.4894 0.0 0.0 0.0 0.0 0.0 
2680.64943846 719.116 -1505.81265584 22.7490964249 74.884114778 -18.8829215704 -1.97936 -0.590805 -3.6173 -1.97215 -0.359586 -3.64751 -1.94147 0.538673 -3.62542 -1.95981 -0.0402562 -3.66495 4.18874 7.85814 4.97597 4.30123 9.25749 6.07554 -0.0 0.0 -0.0 2.15441 14.8776 5.20996 5.90944 -32.7938 75.1376 2.44165 -50.4093 1.14933 -33.1076 -2.24975 3.523 -1.7978 12.5897 -6.16017 -0.0 0.0 -0.0 -2.62756 4.87626 5.88253 -7.71898 4.29825 -74.6372 0.638767 17.5588 -0.0986525 19.2036 -0.272275 2.42651 -0.0760291 -28.9626 -10.9137 0.0 0.0 0.0 -25.1292 1.94869 6.97312 -7.7871 0.241425 1.16978 36.3243 24.1087 -4.77522 -29.433 0.0 0.0 -0.0 0.0 -0.0 23.4599 19.7043 -10.6852 -19.262 -0.30369 -2.92641 34.5503 21.2811 4.87879 -23.801 0.0 0.0 0.0 0.0 0.0 
2681.13616932 719.116 -1507.58705404 21.5971976674 74.0998365553 -17.6875322578 -1.97936 -0.590805 -3.6173 -1.97215 -0.359586 -3.64751 -1.94147 0.538673 -3.62542 -1.95981 -0.0402562 -3.66495 4.18874 7.85814 4.97597 4.30123 9.25749 6.07554 -0.0 0.0 -0.0 2.15441 14.8776 5.20996 5.90944 -32.7938 75.1376 2.44165 -50.4093 1.14933 -33.1076 -2.24975 3.523 -1.7978 12.5897 -6.16017 -0.0 0.0 -0.0 -2.62756 4.87626 5.88253 -7.71898 4.29825 -74.6372 0.638767 17.5588 -0.0986525 19.2036 -0.272275 2.42651 -0.0760291 -28.9626 -10.9137 0.0 0.0 0.0 -25.1292 1.94869 6.97312 -7.7871 0.241425 1.16978 36.3243 24.1087 -4.77522 -29.433 0.0 0.0 -0.0 0.0 -0.0 23.4599 19.7043 -10.6852 -19.262 -0.30369 -2.92641 34.5503 21.2811 4.87879 -23.801 0.0 0.0 0.0 0.0 0.0 
2681.75135724 719.116 -1509.69517816 20.3652300316 73.1560229551 -16.4035468076 -1.97936 -0.590805 -3.6173 -1.97215 -0.359586 -3.64751 -1.94147 0.538673 -3.62542 -1.95981 -0.0402562 -3.66495 4.18874 7.85814 4.97597 4.30123 9.25749 6.07554 -0.0 0.0 -0.0 2.15441 14.8776 5.20996 5.90944 -32.7938 75.1376 2.44165 -50.4093 1.14933 -33.1076 -2.24975 3.523 -1.7978 12.5897 -6.16017 -0.0 0.0 -0.0 -2.62756 4.87626 5.88253 -7.71898 4.29825 -74.6372 0.638767 17.5588 -0.0986525 19.2036 -0.272275 2.42651 -0.0760291 -28.9626 -10.9137 0.0 0.0 0.0 -25.1292 1.94869 6.97312 -7.7871 0.241425 1.16978 36.3243 24.1087 -4.77522 -29.433 0.0 0.0 -0.0 0.0 -0.0 23.4599 19.7043 -10.6852 -19.262 -0.30369 -2.92641 34.5503 21.2811 4.87879 -23.801 0.0 0.0 0.0 0.0 0.0 
2682.5442156 719.116 -1512.22762896 19.0522820611 72.006089867 -15.0275702417 -1.97936 -0.590805 -3.6173 -1.97215 -0.359586 -3.64751 -1.94147 0.538673 -3.62542 -1.95981 -0.0402562 -3.66495 4.18874 7.85814 4.97597 4.30123 9.25749 6.07554 -0.0 0.0 -0.0 2.15441 14.8776 5.20996 5.90944 -32.7938 75.1376 2.44165 -50.4093 1.14933 -33.1076 -2.24975 3.523 -1.7978 12.5897 -6.16017 -0.0 0.0 -0.0 -2.62756 4.87626 5.88253 -7.71898 4.29825 -74.6372 0.638767 17.5588 -0.0986525 19.2036 -0.272275 2.42651 -0.0760291 -28.9626 -10.9137 0.0 0.0 0.0 -25.1292 1.94869 6.97312 -7.7871 0.241425 1.16978 36.3243 24.1087 -4.77522 -29.433 0.0 0.0 -0.0 0.0 -0.0 23.4599 19.7043 -10.6852 -19.262 -0.30369 -2.92641 34.5503 21.2811 4.87879 -23.801 0.0 0.0 0.0 0.0 0.0 
2668.33630764 728.646 -1515.34820328 19.4903661263 71.8567963167 -15.7383446704 -2.00639 -0.561275 -3.50798 -1.99961 -0.337059 -3.53654 -1.97146 0.535358 -3.51203 -1.98867 -0.0256565 -3.55245 4.95788 6.97992 4.32983 5.04613 8.18974 5.29002 -0.0 0.0 -0.0 2.12588 13.6888 5.09048 4.1349 -32.4552 76.1807 1.98356 -44.4922 0.811407 -33.2058 -2.25927 3.53124 -1.73406 13.0973 -5.51573 -0.0 0.0 -0.0 -2.89121 4.21391 6.31099 -4.65584 4.57137 -75.0838 0.7254 19.7655 -0.126379 19.6072 -0.269215 2.47797 -0.108807 -28.9006 -10.7121 0.0 0.0 0.0 -21.514 2.28865 5.12857 -10.7253 0.290882 1.61789 33.3793 26.7187 -4.53645 -30.953 0.0 0.0 -0.0 0.0 -0.0 21.998 20.1806 -10.5847 -19.9535 -0.296189 -3.03225 32.703 20.2773 4.64055 -25.0044 0.0 0.0 0.0 0.0 0.0 
2651.68022841 729.619 -1521.11319586 17.3867857888 70.037596556 -13.4539045577 -1.92533 -0.280004 -3.52544 -1.91841 -0.0552474 -3.53609 -1.90849 0.805263 -3.44374 -1.92495 0.251638 -3.52757 3.4532 6.54881 4.68355 3.53431 7.35102 5.6763 -0.0 0.0 -0.0 2.20974 15.6062 5.34144 2.36923 -30.934 76.7983 1.61981 -38.7408 0.569517 -31.7789 -2.12226 3.40991 -1.16293 12.6851 -2.10629 -0.0 0.0 -0.0 -2.77046 3.96025 6.02538 -2.43928 6.77982 -75.1036 0.777232 21.0575 -0.144457 19.9043 -0.266732 2.51584 -0.319982 -28.774 -9.51047 0.0 0.0 0.0 -18.8772 3.15595 2.79798 -15.3048 0.322005 2.31965 35.0599 26.418 -4.71053 -30.8989 0.0 0.0 -0.0 0.0 -0.0 20.9604 21.1845 -10.7017 -20.3461 -0.291363 -3.0923 34.3602 20.4416 4.82378 -28.2366 0.0 0.0 0.0 0.0 0.0 
2652.37293388 729.619 -1523.24407881 16.7383408026 69.2538067331 -12.7622911633 -1.92533 -0.280004 -3.52544 -1.91841 -0.0552474 -3.53609 -1.90849 0.805263 -3.44374 -1.92495 0.251638 -3.52757 3.4532 6.54881 4.68355 3.53431 7.35102 5.6763 -0.0 0.0 -0.0 2.20974 15.6062 5.34144 2.36923 -30.934 76.7983 1.61981 -38.7408 0.569517 -31.7789 -2.12226 3.40991 -1.16293 12.6851 -2.10629 -0.0 0.0 -0.0 -2.77046 3.96025 6.02538 -2.43928 6.77982 -75.1036 0.777232 21.0575 -0.144457 19.9043 -0.266732 2.51584 -0.319982 -28.774 -9.51047 0.0 0.0 0.0 -18.8772 3.15595 2.79798 -15.3048 0.322005 2.31965 35.0599 26.418 -4.71053 -30.8989 0.0 0.0 -0.0 0.0 -0.0 20.9604 21.1845 -10.7017 -20.3461 -0.291363 -3.0923 34.3602 20.4416 4.82378 -28.2366 0.0 0.0 0.0 0.0 0.0 
2634.20656896 728.413 -1529.4168721 18.4967684054 68.0271376376 -14.5606096402 -2.07886 -0.348616 -3.39033 -2.07247 -0.132302 -3.40562 -2.05813 0.707351 -3.33406 -2.0736 0.172241 -3.40383 2.8561 6.59646 5.9743 2.95698 6.41245 7.11989 -0.0 0.0 -0.0 1.70398 16.2699 4.58404 1.16287 -31.7481 77.3265 1.24609 -31.6848 0.353618 -32.3377 -2.17555 3.45783 -1.63371 11.5779 -5.59544 -0.0 0.0 -0.0 -2.79845 4.44507 6.16055 -0.871998 6.64694 -75.6139 0.872425 23.3725 -0.180455 20.0983 -0.265004 2.54056 -0.393173 -28.8169 -9.12673 0.0 0.0 0.0 -17.5857 4.78111 -0.135817 -20.248 0.292608 3.0773 37.3524 25.776 -4.93046 -32.0266 0.0 0.0 -0.0 0.0 -0.0 20.3445 23.4628 -11.6304 -21.5292 -0.274333 -3.27303 32.4557 16.7332 4.48706 -30.7604 0.0 0.0 0.0 0.0 0.0 
2626.1069192 732.396 -1537.72867371 19.3025932489 67.6668134785 -14.781508259 -2.17632 -0.407586 -3.38624 -2.16997 -0.191412 -3.40529 -2.1518 0.655348 -3.34718 -2.16742 0.118821 -3.40859 2.72058 6.70389 5.92093 2.82203 6.66729 7.06695 -0.0 0.0 -0.0 1.62461 15.5874 4.41003 -0.0238632 -31.6995 77.7158 0.995707 -26.254 0.232209 -31.5347 -2.09912 3.38882 -1.3984 11.3044 -4.22291 -0.0 0.0 -0.0 -2.732 5.17669 6.14284 2.79055 8.27982 -76.0291 1.01224 26.6301 -0.239569 20.3121 -0.263003 2.5678 -0.440508 -28.828 -8.87282 0.0 0.0 0.0 -15.8473 7.80896 -3.0798 -24.6708 0.211032 3.75091 36.7562 25.3089 -4.85473 -32.4597 0.0 0.0 -0.0 0.0 -0.0 19.9771 25.4849 -12.5049 -20.6775 -0.28697 -3.14295 28.4507 15.8234 4.01413 -32.3523 0.0 0.0 0.0 0.0 0.0 
2618.44202598 733.964 -1542.71084866 20.1108359754 67.8369478101 -15.0781211605 -2.24774 -0.401496 -3.36756 -2.24145 -0.186522 -3.38625 -2.22361 0.65956 -3.3267 -2.23903 0.126209 -3.38903 2.26529 6.81124 6.46665 2.38047 6.4626 7.67554 -0.0 0.0 -0.0 1.44962 16.4167 4.19567 -1.39432 -31.4388 77.8344 0.802271 -21.6738 0.153579 -31.1122 -2.05929 3.35207 -1.31864 10.8396 -3.92631 -0.0 0.0 -0.0 -2.44108 6.35657 5.73199 5.27574 9.08561 -76.0923 1.08815 28.3256 -0.2746 20.6377 -0.25976 2.60926 -0.475127 -28.8229 -8.68236 0.0 0.0 0.0 -14.539 9.24596 -5.32881 -27.7854 0.122498 4.22064 38.1822 24.5691 -4.97662 -32.5667 0.0 0.0 -0.0 0.0 -0.0 19.5315 26.663 -13.5469 -20.2928 -0.292043 -3.08414 26.7665 14.4175 3.78002 -34.3421 0.0 0.0 0.0 0.0 0.0 
2615.54365656 735.401 -1546.74540452 19.5557675764 66.618844586 -14.1795186769 -2.43594 -0.397412 -3.24355 -2.43011 -0.190323 -3.26224 -2.41264 0.635634 -3.20543 -2.42695 0.121702 -3.26551 1.50382 6.90267 6.85916 1.6313 6.41878 8.10663 -0.0 0.0 -0.0 1.35293 16.625 4.06059 -2.70153 -31.2235 77.9281 0.660418 -18.1157 0.105284 -30.548 -2.00653 3.30255 -1.24802 10.4534 -3.64997 -0.0 0.0 -0.0 -2.19538 7.46126 5.39229 7.35456 10.2935 -76.5175 1.19819 30.6901 -0.328812 20.8185 -0.257858 2.63228 -0.522985 -28.751 -8.39447 0.0 0.0 0.0 -12.6301 10.5953 -6.81474 -29.7996 0.0516897 4.52163 39.1625 24.0629 -5.05768 -32.7893 0.0 0.0 -0.0 0.0 -0.0 19.6826 27.4582 -14.7286 -20.0456 -0.295095 -3.04633 26.6961 13.5557 3.7507 -35.7575 0.0 0.0 0.0 0.0 0.0 
